<?xml version="1.0" standalone="no"?>
<!DOCTYPE svg PUBLIC "-//W3C//DTD SVG 20010904//EN"
 "http://www.w3.org/TR/2001/REC-SVG-20010904/DTD/svg10.dtd">
<svg version="1.0" xmlns="http://www.w3.org/2000/svg"
 width="256.000000pt" height="256.000000pt" viewBox="0 0 256.000000 256.000000"
 preserveAspectRatio="xMidYMid meet">

<g transform="translate(0.000000,256.000000) scale(0.100000,-0.100000)"
fill="#000000" stroke="none">
<path d="M2095 2551 c-43 -18 -58 -52 -110 -253 l-52 -203 -909 -5 c-1006 -6
-946 -1 -973 -69 -12 -27 0 -74 142 -568 135 -466 159 -541 182 -560 l26 -23
605 0 c581 0 604 -1 604 -19 0 -10 -4 -31 -10 -47 -5 -16 -14 -48 -20 -71
l-11 -43 -559 0 -560 0 0 -90 0 -90 583 0 c357 0 596 4 618 10 20 6 44 19 53
29 11 13 101 342 247 908 126 488 232 896 235 906 5 15 22 17 170 17 l164 0 0
90 0 90 -202 -1 c-112 0 -212 -4 -223 -8z m-1375 -811 l0 -170 -189 0 -188 0
-47 163 c-25 89 -46 166 -46 170 0 4 106 7 235 7 l235 0 0 -170z m538 3 l-3
-168 -192 -3 -193 -2 0 170 0 170 195 0 195 0 -2 -167z m622 156 c0 -6 -19
-83 -42 -170 l-41 -159 -184 0 -183 0 0 170 0 170 225 0 c160 0 225 -3 225
-11z m-1162 -681 l-3 -173 -110 0 -110 0 -42 145 c-23 80 -45 157 -48 173 l-7
27 161 0 161 0 -2 -172z m540 0 l-3 -173 -192 -3 -193 -2 0 175 0 175 195 0
195 0 -2 -172z m488 155 c-3 -10 -17 -65 -31 -123 -15 -58 -33 -129 -41 -158
l-16 -53 -111 3 -112 3 -3 173 -2 172 160 0 c149 0 161 -1 156 -17z"/>
<path d="M535 351 c-90 -56 -120 -153 -75 -241 66 -129 256 -127 319 2 45 94
11 196 -81 244 -39 20 -127 18 -163 -5z"/>
<path d="M1405 336 c-60 -36 -88 -93 -83 -166 10 -141 160 -214 279 -136 42
28 79 96 79 144 0 65 -45 138 -102 168 -44 23 -126 18 -173 -10z"/>
</g>
</svg>
